# xmcd
#
# Track frame offsets:
#	150
#	10212
#	22382
#	32630
#	47867
#	59657
#	67195
#	78007
#	93007
#	104060
#	123925
#
# Disc length: 1794 seconds
#
# Revision: 1
# Processed by: cddbd v1.5.2PL0 Copyright (c) Steve Scherf et al.
# Submitted via: audiograbber 1.83.01
#
DISCID=9407000b
DTITLE=The Dang-it Bobbys - Something In The Air
DYEAR=2009
DGENRE=Country
TTITLE0=Elevated Line
TTITLE1=Cow Song
TTITLE2=Wrong From Right
TTITLE3=Running Around
TTITLE4=Something In The Air
TTITLE5=Go To Hell
TTITLE6=Hold Me Close
TTITLE7=Lazy Loons
TTITLE8=Trust Me
TTITLE9=Naïve
TTITLE10=Not So Bad
EXTD=
EXTT0=
EXTT1=
EXTT2=
EXTT3=
EXTT4=
EXTT5=
EXTT6=
EXTT7=
EXTT8=
EXTT9=
EXTT10=
PLAYORDER=
